# xmcd CD database file
#
# Track frame offsets:
#	150
#	15222
#	40347
#	41682
#
# Disc length: 739 seconds
#
# Revision: 0
# Processed by: cddbd v1.5.1PL2 Copyright (c) Steve Scherf et al.
# Submitted via: CDex 1.51
#
DISCID=2402e104
DTITLE=Ellie Campbell - Don't Want You Back
DYEAR=1900
DGENRE=Pop
TTITLE0=Don't Want You Back
TTITLE1=Don't Want You Back - W.I.P Remix
TTITLE2=Message From Ellie
TTITLE3=Excerts From:You're No Goodo Many Ways・Sweet Lies
EXTD=
EXTT0=
EXTT1=
EXTT2=
EXTT3=
PLAYORDER=
